<?xml version="1.0" standalone="no"?>
<!DOCTYPE svg PUBLIC "-//W3C//DTD SVG 20010904//EN"
 "http://www.w3.org/TR/2001/REC-SVG-20010904/DTD/svg10.dtd">
<svg version="1.0" xmlns="http://www.w3.org/2000/svg"
 width="96.000000pt" height="96.000000pt" viewBox="0 0 96.000000 96.000000"
 preserveAspectRatio="xMidYMid meet">
<metadata>
Created by potrace 1.14, written by Peter Selinger 2001-2017
</metadata>
<g transform="translate(0.000000,96.000000) scale(0.100000,-0.100000)"
fill="#000000" stroke="none">
<path d="M377 914 c-42 -40 -46 -48 -17 -39 12 4 20 2 20 -5 0 -6 8 -10 17 -8
10 2 19 -5 21 -16 2 -11 0 -16 -7 -12 -6 4 -19 -2 -30 -13 -17 -17 -19 -26
-11 -46 6 -15 10 -28 10 -30 0 -1 -24 -2 -53 -1 -46 1 -53 4 -49 19 2 9 8 17
12 17 14 0 18 39 6 49 -7 6 -32 13 -57 16 -86 10 -109 18 -131 40 -26 27 -38
24 -38 -11 0 -29 49 -84 75 -84 9 0 13 -5 10 -10 -4 -6 -11 -8 -16 -5 -14 9
-69 -50 -69 -75 0 -30 16 -58 62 -108 30 -33 39 -50 35 -68 -5 -29 -4 -29 49
-4 43 21 61 49 67 105 4 34 19 66 40 83 11 10 13 4 12 -32 -1 -24 -5 -47 -8
-53 -5 -9 6 -36 14 -33 2 1 12 -2 21 -5 13 -5 15 -12 9 -23 -5 -10 -7 -30 -6
-47 l2 -30 -10 28 c-12 30 -40 38 -35 10 2 -12 -4 -19 -19 -21 -13 -2 -23 -11
-24 -20 0 -11 -3 -12 -6 -4 -7 18 -45 14 -73 -8 -33 -26 -37 -25 -70 10 -46
49 -74 38 -93 -37 -8 -28 -12 -59 -9 -69 2 -11 7 -39 11 -64 7 -47 41 -129 53
-130 12 0 26 34 22 55 -9 47 -3 104 11 102 5 -1 9 15 9 36 -1 20 3 37 7 37 5
0 9 -4 9 -9 0 -5 8 -12 17 -14 17 -4 17 -5 1 -6 -23 -1 -22 -6 7 -65 23 -48
23 -49 4 -69 -15 -17 -18 -29 -13 -57 4 -19 8 -52 9 -73 1 -20 10 -45 19 -55
9 -10 16 -24 16 -30 0 -14 56 -16 65 -3 3 6 -8 24 -25 41 -29 29 -34 46 -32
98 1 24 10 34 60 70 l33 24 -17 -33 c-16 -32 -16 -33 6 -49 48 -31 91 -82 85
-99 -3 -11 4 -26 20 -39 22 -19 25 -20 34 -5 14 25 -7 74 -46 110 -19 18 -34
40 -34 50 1 40 5 53 14 53 21 0 75 -50 81 -75 13 -51 28 -15 22 52 -4 49 -3
62 7 56 23 -14 48 -13 54 3 4 10 8 12 13 5 6 -11 34 -16 73 -12 11 0 15 6 11
13 -4 7 -3 8 4 4 8 -5 9 -13 3 -24 -5 -9 -11 -48 -14 -87 -2 -38 -8 -77 -11
-86 -4 -9 -1 -23 6 -30 8 -8 17 -22 21 -31 4 -12 17 -18 37 -18 38 0 40 21 3
48 -30 22 -34 62 -9 114 28 59 37 100 24 115 -10 12 -3 13 43 7 30 -3 58 -10
62 -14 16 -14 -21 -75 -58 -96 -22 -12 -32 -41 -18 -55 17 -17 79 44 110 106
16 33 28 65 26 71 -2 6 -32 26 -67 44 -49 24 -63 36 -59 50 5 18 -43 64 -57
55 -4 -3 -10 2 -14 10 -3 8 0 14 7 12 7 -1 11 4 9 11 -1 8 2 11 8 7 6 -4 9
-10 6 -13 -7 -7 13 -32 26 -32 11 0 5 53 -11 93 -9 23 -15 27 -34 21 -12 -4
-29 -9 -37 -11 -8 -3 -3 4 13 13 29 20 37 40 12 30 -23 -8 -18 12 6 25 14 7
24 7 28 1 3 -5 17 -13 30 -17 20 -6 23 -4 18 9 -4 10 -1 16 9 16 20 0 29 27
15 44 -14 17 -14 18 71 45 68 23 107 48 46 30 -18 -5 -44 -11 -58 -14 -55 -11
-85 -23 -82 -34 1 -7 -7 -6 -22 4 -30 20 -125 55 -148 55 -11 0 -15 -5 -12
-15 4 -9 0 -15 -9 -15 -22 0 -59 -54 -51 -75 6 -14 3 -16 -14 -10 -15 4 -22 2
-22 -7 0 -7 -11 5 -25 27 l-25 40 36 32 c26 23 32 33 22 40 -7 4 -21 18 -32
30 -18 22 -18 23 8 53 29 35 27 44 -13 64 -26 14 -29 13 -64 -20z m20 -279 c0
-8 -7 -15 -15 -15 -12 0 -12 3 -2 15 7 8 13 15 15 15 1 0 2 -7 2 -15z m90 -17
c7 17 23 5 23 -18 0 -10 6 -21 13 -23 7 -3 4 -6 -6 -6 -10 -1 -15 -6 -12 -12
4 -6 23 -8 46 -5 25 3 38 2 34 -4 -3 -6 -16 -10 -29 -10 -15 0 -27 -10 -39
-32 -8 -18 -16 -26 -16 -17 -1 9 -10 24 -21 34 -17 15 -22 16 -36 4 -16 -13
-16 -12 -4 8 11 17 17 19 28 11 9 -8 16 -8 24 0 8 8 4 17 -14 34 -14 13 -23
29 -20 37 4 11 6 11 14 0 7 -11 11 -11 15 -1z m78 -38 c-3 -5 -10 -10 -16 -10
-5 0 -9 5 -9 10 0 6 7 10 16 10 8 0 12 -4 9 -10z m-155 -10 c0 -5 -2 -10 -4
-10 -3 0 -8 5 -11 10 -3 6 -1 10 4 10 6 0 11 -4 11 -10z m210 -10 c0 -5 -5
-10 -11 -10 -5 0 -7 5 -4 10 3 6 8 10 11 10 2 0 4 -4 4 -10z m-53 -46 c-3 -3
-12 -4 -19 -1 -8 3 -5 6 6 6 11 1 17 -2 13 -5z m-25 -56 c-7 -7 -12 -21 -12
-31 0 -16 -3 -17 -15 -7 -8 7 -15 20 -15 29 0 12 2 13 9 3 11 -18 36 12 25 30
-5 10 -4 11 7 1 10 -10 10 -16 1 -25z m-259 -11 c3 -8 1 -20 -4 -28 -6 -10 -9
-7 -9 14 0 29 5 35 13 14z m310 -10 c7 4 5 -2 -3 -13 -8 -10 -16 -21 -17 -23
-2 -2 -3 9 -2 25 0 16 3 23 6 16 2 -6 10 -9 16 -5z m-328 -56 c9 -16 -9 -20
-23 -5 -10 12 -10 14 2 14 8 0 17 -4 21 -9z m65 -1 c0 -5 -2 -10 -4 -10 -3 0
-8 5 -11 10 -3 6 -1 10 4 10 6 0 11 -4 11 -10z m65 -30 c-3 -5 -11 -10 -16
-10 -6 0 -7 5 -4 10 3 6 11 10 16 10 6 0 7 -4 4 -10z m-65 -4 c0 -2 -7 -6 -15
-10 -8 -3 -15 -1 -15 4 0 6 7 10 15 10 8 0 15 -2 15 -4z m218 -31 c-3 -3 -9 2
-12 12 -6 14 -5 15 5 6 7 -7 10 -15 7 -18z"/>
</g>
</svg>
